# File generated by ImageToStl.com - Free Image and 3D model conversion tools

mtllib Counter_Mesh.mtl

o obj1
v 3 0 -9
v 3 0 9
v -3 0 9
v -3 0 -9
v 3 4 -9
v -3 4 -9
v -3 4 9
v 3 4 9
v -3 4 -9
v -3 0 -9
v -3 0 9
v -3 4 9
v 3 4 -9
v 3 0 -9
v 3 4 9
v 3 0 9
v -3 4 9
v -3 0 9
vn -0 -1 0
vn -0 1 0
vn -1 0 0
vn -0 0 -1
vn 1 0 0
vn -0 0 1
vt 3 9
vt 3 -9
vt -3 -9
vt -3 9
vt 2.49989 1.00002
vt 2.49989 0.49998
vt 3.99998 0.49998
vt 3.99998 1.00002
vt 2.49989 0.49998
vt 2.49989 0.00011
vt 3.99998 0.00011
vt 3.99998 0.49998
vt 1.99992 0.5
vt 1.99992 0.00012
vt 0.50007 0.5
vt 0.50007 0.00012
vt 0.00011 0.5
vt 0.00011 0.00012
usemtl mat1
f 1/1/1 2/2/1 3/3/1
f 4/4/1 1/1/1 3/3/1
f 5/5/2 6/6/2 7/7/2
f 8/8/2 5/5/2 7/7/2
f 9/9/3 10/10/3 11/11/3
f 12/12/3 9/9/3 11/11/3
f 13/13/4 14/14/4 10/10/4
f 9/9/4 13/13/4 10/10/4
f 15/15/5 16/16/5 14/14/5
f 13/13/5 15/15/5 14/14/5
f 17/17/6 18/18/6 16/16/6
f 15/15/6 17/17/6 16/16/6
# Vertices: 18, normals: 6, texture coordinates: 18, faces: 12

