# File generated by ImageToStl.com - Free Image and 3D model conversion tools

mtllib ExaminationTable_Mesh.mtl

o obj1
v 2.75 0 5.25349998
v -2.75 0 5.25349998
v -2.75 0 -8.75
v 2.75 0 -8.75
v -3 4 -2.57500219
v 3 4 -2.57500219
v 3 8.26182365 -8.6599369
v -3 8.26182365 -8.6599369
v 3 8.26182365 -8.6599369
v 3 7.875 -9
v -3 7.875 -9
v -3 8.26182365 -8.6599369
v 3 7.875 -9
v 2.9849987 4 -4.07500267
v -3.01500201 4 -4.07500219
v -3 7.875 -9
v 2.9849987 4 -4.07500267
v 3 4 -2.57500219
v -3.01500201 4 -4.07500219
v -3 4 -2.57500219
v 2.75 3.25 5.25349998
v 2.75 0 5.25349998
v 2.75 0 -8.75
v 2.75 3.25 -8.75
v -2.75 3.25 5.25349998
v -2.75 0 5.25349998
v -2.75 3.25 -8.75
v -2.75 0 -8.75
v -3 4 5.50349998
v 3 4 5.50349998
v 3 4 5.50349998
v -3 4 5.50349998
v -3 3.25 5.50349998
v 3 3.25 5.50349998
v 2.75 3.25 -8.75
v 2.75 0 -8.75
v -2.75 3.25 -8.75
v -3 4 -4.07500219
v -3 4 -2.57500219
v 3 4 -2.57500219
v 3 4 -4.07500219
v -2.75 3.25 -4.07500219
v 2.75 3.25 -4.07500219
v -3 4 -4.07500219
v 3 4 -4.07500219
v 3 3.25 -4.07500219
v -3 3.25 -4.07500219
v 3 4 5.50349998
v 3 3.25 5.50349998
v -2.75 3.25 -4.07500219
v -2.75 3.25 5.50349998
v 2.75 3.25 5.50349998
v -2.75 3.25 5.50349998
v -2.75 3.25 5.25349998
v 2.75 3.25 5.25349998
v 2.75 3.25 5.50349998
v 2.75 3.25 -4.07500219
vn -0 -1 0
vn -0 0.81908 0.57368
vn -0 0.66025 -0.75104
vn -0 -0.7859 -0.61835
vn 1 -0.00158 0.0018
vn 0.99985 -0.01428 -0.01
vn -0.99985 0.01428 0.01
vn -1 0.00158 -0.0018
vn 1 0 0
vn -0 0 1
vn -1 0 0
vn -0 1 0
vn -0 0 -1
vt 2.75 -5.2535
vt -2.75 -5.2535
vt -2.75 8.75
vt 2.75 8.75
vt 0.58987 0.51834
vt 0.58987 0.97054
vt 0.02998 0.97054
vt 0.02998 0.51834
vt 2.9375 0.49219
vt 2.9375 0.42188
vt 3.375 0.42188
vt 3.375 0.49219
vt 1.67214 0.96711
vt 1.20632 0.96604
vt 1.20632 0.53725
vt 1.67214 0.53832
vt 2.375 0.42188
vt 2.375 0.49219
vt 3.9375 0.42188
vt 3.9375 0.49219
vt 2.56201 0.40625
vt 2.56201 -2E-05
vt 3.99685 -2E-05
vt 3.99685 0.40625
vt 1.99844 0.40625
vt 1.99844 -2E-05
vt 0.2799 0.40592
vt 0.2799 0
vt 1.19872 0.51834
vt 1.19872 0.97054
vt 2.34826 0.49601
vt 1.89606 0.49601
vt 1.89606 0.43949
vt 2.34826 0.43948
vt 7E-05 0.40624
vt 7E-05 -2E-05
vt 0.2799 0.40592
vt 3 -4.075
vt 3 -2.575
vt -3 -2.575
vt -3 -4.075
vt 0.28054 0.14828
vt 0.00071 0.1486
vt 1.17416 0.49601
vt 0.72195 0.49601
vt 0.72195 0.43948
vt 1.17416 0.43949
vt 4E-05 0.49601
vt 4E-05 0.43948
vt 1.17416 0.42065
vt 1.89606 0.42065
vt 2.34826 0.42056
vt 0.00013 0.42119
vt 0.72194 0.42106
usemtl mat1
f 1/1/1 2/2/1 3/3/1
f 4/4/1 1/1/1 3/3/1
f 5/5/2 6/6/2 7/7/2
f 8/8/2 5/5/2 7/7/2
f 9/9/3 10/10/3 11/11/3
f 12/12/3 9/9/3 11/11/3
f 13/13/4 14/14/4 15/15/4
f 16/16/4 13/13/4 15/15/4
f 17/17/5 10/10/5 9/9/5
f 18/18/6 17/17/6 9/9/6
f 19/19/7 20/20/7 12/12/7
f 11/11/8 19/19/8 12/12/8
f 21/21/9 22/22/9 23/23/9
f 24/24/9 21/21/9 23/23/9
f 25/25/10 26/26/10 22/22/10
f 21/21/10 25/25/10 22/22/10
f 27/27/11 28/28/11 26/26/11
f 25/25/11 27/27/11 26/26/11
f 29/29/12 30/30/12 6/6/12
f 5/5/12 29/29/12 6/6/12
f 31/31/10 32/32/10 33/33/10
f 34/34/10 31/31/10 33/33/10
f 35/35/13 36/36/13 28/28/13
f 37/37/13 35/35/13 28/28/13
f 38/38/12 39/39/12 40/40/12
f 41/41/12 38/38/12 40/40/12
f 35/35/12 37/37/12 42/42/12
f 43/43/12 35/35/12 42/42/12
f 44/44/13 45/45/13 46/46/13
f 47/47/13 44/44/13 46/46/13
f 46/46/9 45/45/9 48/48/9
f 49/49/9 46/46/9 48/48/9
f 44/44/11 47/47/11 33/33/11
f 32/32/11 44/44/11 33/33/11
f 47/47/1 50/50/1 51/51/1
f 33/33/1 47/47/1 51/51/1
f 52/34/1 53/33/1 54/51/1
f 55/52/1 52/34/1 54/51/1
f 49/49/1 56/53/1 57/54/1
f 46/46/1 49/49/1 57/54/1
# Vertices: 57, normals: 13, texture coordinates: 54, faces: 40

